<?xml version="1.0" encoding="utf-8"?><svg id="svgSprite" xmlns="http://www.w3.org/2000/svg" xmlns:xlink="http://www.w3.org/1999/xlink"><defs><svg fill="none" viewBox="0 0 11 17" id="cursor" xmlns="http://www.w3.org/2000/svg"><path d="M10.116 9.598L.973.455a.533.533 0 00-.402-.17.575.575 0 00-.214.045A.573.573 0 000 .857v13.429c0 .232.143.437.357.527a.574.574 0 00.214.044.568.568 0 00.402-.17l2.786-2.785 1.705 4.036a.574.574 0 00.75.303l1.58-.67a.574.574 0 00.304-.75l-1.794-4.25h3.41a.573.573 0 00.527-.357.55.55 0 00-.125-.616z" fill="#fff"/></svg><svg fill="none" viewBox="0 0 16 15" id="heart" xmlns="http://www.w3.org/2000/svg"><path d="M8 14.143a.554.554 0 00.393-.16l5.562-5.358C14.035 8.545 16 6.75 16 4.607 16 1.991 14.402.43 11.732.43 10.17.429 8.705 1.66 8 2.357 7.295 1.661 5.83.43 4.268.43 1.598.429 0 1.99 0 4.607c0 2.143 1.964 3.938 2.036 4l5.571 5.375c.107.107.25.16.393.16z" fill="#fff"/></svg><svg fill="none" viewBox="0 0 18 14" id="link" xmlns="http://www.w3.org/2000/svg"><path d="M9.482 5.643l1.17.545 1.74-.518V4.455c0-2.062-1.74-3.714-3.82-3.714C6.5.741 4.75 2.384 4.75 4.43v5.535c0 .51-.41.911-.91.911s-.911-.402-.911-.91v-2.34H0V10a3.83 3.83 0 003.83 3.83c2.099 0 3.83-1.687 3.83-3.776V4.589c0-.5.411-.91.911-.91s.911.41.911.91v1.054zm4.732 1.982v2.455c0 .5-.41.902-.91.902s-.911-.402-.911-.902V7.67l-1.741.518-1.17-.545v2.393c0 2.098 1.723 3.794 3.83 3.794a3.83 3.83 0 003.83-3.83V7.625h-2.928z" fill="#fff"/></svg><svg fill="none" viewBox="0 0 14 17" id="sandwatches" xmlns="http://www.w3.org/2000/svg"><path d="M12.571 1.429h.858c.16 0 .285-.125.285-.286V.57a.282.282 0 00-.285-.285H.286A.282.282 0 000 .57v.572c0 .16.125.286.286.286h.857c0 3.303 1.58 5.696 3.33 6.857-1.75 1.16-3.33 3.553-3.33 6.857H.286a.282.282 0 00-.286.286V16c0 .16.125.286.286.286h13.143c.16 0 .285-.125.285-.286v-.571a.282.282 0 00-.285-.286h-.858c0-3.304-1.58-5.697-3.33-6.857 1.75-1.161 3.33-3.554 3.33-6.857zm-1.142 0a7.915 7.915 0 01-.76 3.428H3.046a7.915 7.915 0 01-.76-3.428h9.144zm-.51 10.857H2.796c.66-1.723 1.848-2.947 3.035-3.429h2.054c1.187.482 2.375 1.706 3.036 3.429z" fill="#fff"/></svg><svg fill="none" viewBox="0 0 17 19" id="triangle" xmlns="http://www.w3.org/2000/svg"><path fill-rule="evenodd" clip-rule="evenodd" d="M15.852 8.53c.739.435.739 1.505 0 1.94L2.195 18.503c-.75.44-1.695-.1-1.695-.97V1.467c0-.87.945-1.41 1.695-.97L15.852 8.53z" fill="#F90"/></svg></defs></svg>